<svg xmlns="http://www.w3.org/2000/svg" viewBox="0 0 512 512" width="512" height="512">
  <rect width="512" height="512" fill="#F39C12"/>
  <svg x="128" y="128" width="256" height="256" viewBox="0 0 656 624" preserveAspectRatio="xMidYMid meet">
    <path fill="#FFFFFF" opacity="1" stroke="none" d="M494.735870,571.191162 C496.095642,549.125061 501.677460,528.397644 507.774200,507.784760 C515.045105,483.201813 522.544983,458.685211 529.616394,434.045380 C531.718994,426.718903 533.242004,419.141357 532.865051,411.390808 C532.765442,409.342560 533.666016,406.617645 531.056519,405.675385 C528.744324,404.840515 527.062561,406.848267 525.458008,408.258331 C518.035339,414.781128 511.803711,422.393036 505.760223,430.151215 C474.497345,470.284515 446.147278,512.429199 419.259583,555.582092 C416.352264,560.248108 413.425385,564.908142 410.313354,569.437500 C408.914154,571.473877 407.227264,573.410645 405.333679,574.987549 C401.996155,577.766968 397.967590,578.504700 394.133331,576.425476 C390.211151,574.298645 389.726013,570.328674 390.584686,566.340088 C393.644287,552.127869 398.931854,538.614075 403.962128,525.042603 C417.158142,489.440491 431.909058,454.423889 444.248962,418.499908 C448.033112,407.483459 451.588348,396.360596 452.787537,384.686157 C453.031525,382.310913 453.893127,379.279053 451.258667,377.813995 C448.555420,376.310791 446.125519,378.353210 443.963257,379.813690 C432.384338,387.634491 423.000122,397.886047 413.903259,408.262482 C374.208618,453.540588 337.321747,501.024811 303.446014,550.818848 C296.887848,560.458740 290.784546,570.410034 284.553406,580.269470 C282.590942,583.374512 280.424194,585.774292 276.342010,585.848999 C268.608185,585.990479 265.446075,581.972595 268.304138,574.826782 C279.993530,545.600586 291.707794,516.383484 303.621918,487.248444 C316.304291,456.234619 327.351166,424.683563 335.958984,392.285492 C340.479004,375.272797 343.639343,358.178833 340.726990,340.490967 C337.478027,320.758484 324.433716,308.349030 304.628448,306.165314 C281.972778,303.667267 260.329926,307.954498 239.928909,317.401428 C206.739182,332.770355 179.254471,355.275604 159.223206,386.172058 C150.041183,400.334503 144.298584,416.062317 142.587891,432.847046 C139.775253,460.443756 153.037445,480.789307 180.006897,491.618530 C196.724625,498.331360 214.332977,500.919525 232.104340,502.670563 C241.544281,503.600708 251.011993,504.263794 260.438110,505.309357 C262.853607,505.577240 266.779907,505.450806 266.396851,509.070221 C266.054657,512.303162 262.381561,511.418579 260.108704,511.295135 C239.308228,510.165314 218.581940,508.213715 198.055328,504.585388 C185.325134,502.335205 173.317459,497.946564 161.987717,491.663513 C144.426224,481.924683 132.923599,467.936737 130.925598,447.377899 C129.383698,431.511841 133.081558,416.528442 139.765518,402.299500 C160.390335,358.392975 194.628616,328.887878 238.586655,309.957977 C243.126968,308.002747 245.363037,306.216675 245.902618,300.659485 C246.999817,289.359528 251.854431,278.881897 255.668793,268.227295 C269.754211,228.882690 286.331329,190.474960 299.851410,150.920059 C303.404907,140.523819 306.508759,129.974808 308.000916,119.028664 C308.364502,116.361511 309.157501,113.347809 306.582855,111.666237 C303.951324,109.947487 301.420105,112.012337 299.265625,113.467552 C287.973724,121.094429 278.822021,131.080490 269.875153,141.160278 C234.331924,181.204224 201.494553,223.406586 170.605408,267.120300 C159.645554,282.630493 149.088989,298.432861 139.268036,314.700287 C137.217316,318.097076 134.625381,319.577057 130.682892,319.414520 C123.104874,319.102081 120.550423,315.352936 123.432899,308.184875 C130.080521,291.653717 136.866211,275.177856 143.472061,258.630127 C156.123840,226.937363 169.874603,195.654526 180.196884,163.080536 C186.578964,142.940628 193.246368,122.811447 196.108612,101.775322 C197.756363,89.665115 197.559326,77.521713 193.593460,65.703857 C188.064835,49.229107 173.840546,39.942760 153.431992,39.334435 C125.941765,38.515026 100.750206,46.050858 77.453575,60.244781 C57.687851,72.287437 39.957638,86.798126 25.233500,104.792160 C24.507215,105.679726 23.875664,106.739540 21.832024,106.586128 C21.383091,102.044228 19.603897,97.121536 23.291477,93.143250 C50.871635,63.388851 83.612534,42.358402 124.108452,35.170761 C140.100967,32.332241 156.255249,31.732897 172.131149,36.484844 C191.897125,42.401165 202.788086,55.927334 205.377563,76.453781 C207.574219,93.866531 204.762405,110.675186 200.340836,127.318924 C188.813568,170.710022 172.419937,212.385132 155.390701,253.832962 C150.157837,266.569397 145.233612,279.432678 140.168060,292.237885 C140.515198,292.455811 140.862335,292.673767 141.209473,292.891724 C145.178436,287.748688 149.233749,282.669708 153.102646,277.452454 C182.570679,237.714661 210.835709,197.056610 242.769135,159.200562 C256.833435,142.527786 270.944916,125.827423 288.181122,112.191368 C293.174561,108.240913 298.462402,104.739166 304.765900,103.245102 C313.973480,101.062729 319.550323,105.397446 319.229614,114.869278 C318.836090,126.492867 314.945984,137.409912 311.354584,148.298752 C303.217072,172.971237 293.257751,196.962738 283.772186,221.135284 C275.323090,242.666473 265.886658,263.861938 260.123444,286.376251 C259.679321,288.111206 258.920532,289.793457 259.779907,291.978363 C262.237244,290.848328 263.276459,288.718750 264.505188,286.854431 C291.186615,246.372070 318.494751,206.315369 346.939941,167.053726 C355.040466,155.872986 363.900696,145.170105 374.393250,136.041183 C378.805908,132.202011 383.432922,128.657745 390.005127,129.642548 C395.876495,130.522308 398.514252,132.994705 399.332214,138.864578 C400.285004,145.702133 398.154572,152.134491 396.500092,158.520767 C388.691895,188.659821 378.854980,218.215958 370.367981,248.158539 C364.332214,269.452972 358.456421,290.872711 359.275787,313.373108 C359.471527,318.748322 360.438995,323.989288 362.837250,328.842438 C365.801819,334.841614 369.500397,336.700104 376.191132,335.947937 C378.172211,335.725220 380.177734,335.668823 382.173431,335.643433 C383.690002,335.624115 385.365387,335.704041 385.826141,337.533813 C386.283173,339.348785 384.880554,340.254700 383.535095,340.966278 C375.718811,345.099823 358.311829,343.810272 353.528778,330.531860 C350.126648,321.087128 349.411499,311.387756 350.144135,301.488647 C352.091705,275.173431 360.395264,250.335358 367.707886,225.249130 C373.853699,204.165771 381.195648,183.424561 386.063110,161.977982 C387.202393,156.958221 387.698303,151.788834 388.409668,146.677094 C388.759308,144.164322 388.969208,141.182617 386.742188,139.764526 C384.136719,138.105423 382.079773,140.683167 380.306671,142.275436 C370.708344,150.894791 362.793365,161.035049 355.057312,171.259247 C325.278992,210.615204 297.658020,251.453888 271.787476,293.477966 C270.582336,295.435638 269.575348,297.515320 268.382843,299.709717 C271.143341,301.750244 273.776001,300.557343 276.286102,300.358704 C288.439514,299.396759 300.555664,298.909882 312.601288,301.579224 C334.352112,306.399231 347.180084,320.603912 350.267029,342.803864 C352.640991,359.876556 349.574707,376.307526 345.349762,392.669434 C336.379456,427.408722 323.930237,460.959778 310.645599,494.226715 C302.368866,514.953064 294.148560,535.702026 285.913879,556.445190 C285.678284,557.038696 285.566742,557.681580 285.218994,558.953735 C287.697632,558.044189 288.487427,556.163940 289.544495,554.739075 C310.489899,526.503906 331.139465,498.045380 352.361389,470.020203 C375.095764,439.997803 398.229309,410.257843 425.916718,384.478851 C431.653107,379.137878 437.759796,374.192627 445.073395,371.080658 C450.288086,368.861816 455.824585,367.263275 460.679443,371.357300 C465.161957,375.137299 464.679199,380.622437 463.755066,385.795013 C460.665527,403.088318 454.737579,419.542389 448.692169,435.956390 C436.263000,469.702972 421.829193,502.674713 409.797668,536.573975 C407.366180,543.424805 404.980530,550.306885 404.106018,558.081177 C407.122314,557.503479 407.847626,555.291077 408.935028,553.638245 C435.034882,513.966003 462.010010,474.891022 489.590179,436.241150 C497.318115,425.411499 505.765167,415.043030 515.443604,405.789825 C518.222107,403.133362 521.126221,400.679596 524.344788,398.551971 C529.592773,395.082703 535.212952,394.420349 540.276062,397.963715 C545.005554,401.273590 545.178833,406.808411 544.139771,412.075836 C541.559387,425.156311 537.931091,437.977692 534.265259,450.787781 C525.431030,481.658844 514.533630,511.956940 507.824646,543.410583 C504.701050,558.054932 502.379578,572.945923 505.323456,587.998901 C505.828064,590.579041 506.755585,593.159851 507.949005,595.505737 C511.098511,601.696777 515.013672,603.441040 521.886536,602.367859 C524.837830,601.907104 529.424011,599.950928 530.137634,603.734558 C530.973877,608.167786 525.697449,608.393250 522.544739,608.976074 C510.147247,611.267822 500.365631,605.113647 496.980682,592.959534 C495.049377,586.024963 494.470306,578.865540 494.735870,571.191162 z"/>
    <path fill="#FFFFFF" opacity="1" stroke="none" d="M38.608509,234.524139 C34.168125,232.910416 30.050169,231.557281 26.063963,229.889297 C20.896257,227.726929 20.265190,225.980072 21.992731,220.056702 C23.386705,219.217438 24.534861,220.032898 25.683428,220.668060 C42.954838,230.219452 61.905243,233.595520 81.187538,235.641785 C92.430840,236.834946 103.713654,237.656952 114.955193,238.864639 C117.585503,239.147217 121.736534,239.066040 121.589340,242.599625 C121.449623,245.953613 117.426437,245.414429 114.984589,245.211288 C89.462624,243.088135 63.797138,241.918671 38.608509,234.524139 z"/>
  </svg>
</svg>
